<?xml version="1.0" encoding="UTF-8"?>
<svg xmlns="http://www.w3.org/2000/svg" version="1.1" viewBox="265 351.723 70.2 53.495">
  <defs>
    <style>
      .st0 { fill: #ffffff; }
    </style>
  </defs>
  <g>
    <path class="st0" d="M313.11,400.26c.33,0,.57-.33.51-.68-.73-4.71-1.8-6.38-4.75-8.81-3.23-2.66-10.15-3.07-10.15-3.07,0,0-3.82-.2-7.29-.4-1.97-.11-3.83-.22-4.82-.3-2.07-.15-4.92-.65-5.77-1.12-.27-.15-.59-.08-.79.15l-10.8,13.25c-.31.37-.08.97.38.97h43.48Z"/>
    <path class="st0" d="M274.99,378.61c-.26.3-.05.79.33.77,3.43-.17,14.93-.78,24.78,1.68,8.9,2.22,15.02,6.27,16.62,13.71l.93,4.98c.06.3.3.51.58.51h13.67c.41,0,.62-.53.34-.85-3.59-4.15-19.15-22.11-21.31-24.39-.07-.07-.21-.21-.37-.24-.2-.03-.54.08-.55.08-2.37.47-16.07,2.09-23.5-8.77-.17-.25-.51-.28-.71-.05l-10.8,12.58Z"/>
    <path class="st0" d="M307.76,370.81l-14-15.02s-2.66,4.96-.13,8.82c1.39,2.12,4.34,2.41,7.41,3.28,2.51.71,5.15,2.08,6.71,2.92Z"/>
  </g>
</svg>

