<?xml version="1.0" encoding="UTF-8"?>
<svg id="Camada_1" xmlns="http://www.w3.org/2000/svg" version="1.1" viewBox="223.114 320 153.972 121.6">
  <defs>
    <style>
      .st0 { fill: #001b44; }        /* navy escuro para base/símbolo */
      .st2 { fill: #21D8DE; }        /* ciano para curvas e acentos */
      .st3 { fill: #0390C6; }        /* acento superior azul */
    </style>
  </defs>
  <!-- Letras (software) em ciano -->
  <g fill="#21d8de">
    <path d="M242.13,427.11c1.92,0,2.47.41,2.47,1.59v.31c0,1.29-.57,1.65-2.47,1.65h-7.11v-1.12h6.55c.98,0,1.32-.13,1.32-.73v-.18c0-.61-.33-.75-1.32-.75h-4.12c-1.74,0-2.45-.35-2.45-1.55v-.43c0-1.25.71-1.57,2.5-1.57h6.49v1.13h-5.91c-1,0-1.32.13-1.32.74v.17c0,.61.32.75,1.32.75h4.05Z"/>
    <path d="M250.8,430.66c-2.22,0-3.05-.31-3.05-1.95v-2.44c0-1.6.83-1.95,3.05-1.95h3.55c2.22,0,3.05.35,3.05,1.95v2.44c0,1.64-.83,1.95-3.05,1.95h-3.55ZM254.13,429.44c1.11,0,1.5-.15,1.5-1.01v-1.88c0-.79-.42-1.02-1.5-1.02h-3.11c-1.08,0-1.5.23-1.5,1.02v1.88c0,.85.37,1.01,1.5,1.01h3.11Z"/>
    <path d="M260.74,430.66v-6.56c0-1.65.8-1.98,3.03-1.98h2.19v1h-1.85c-1.25,0-1.61.15-1.61,1.02v.39h3.46v.98h-3.46v5.15h-1.77Z"/>
    <path d="M271.87,430.66c-2.25,0-3.02-.37-3.02-1.95v-6.23h1.77v1.85h2.75v1.15h-2.75v2.97c0,.83.36,1.01,1.5,1.01h1.95v1.21h-2.19Z"/>
    <path d="M286.1,430.66l-2.38-4.8-2.33,4.8h-2.23l-2.97-6.34h1.9l2.3,5.16,2.49-5.16h1.87l2.47,5.16,2.32-5.16h1.77l-2.97,6.34h-2.23Z"/>
    <path d="M296.59,430.66c-2.23,0-2.97-.33-2.97-1.83v-.27c0-1.41.56-1.73,3-1.73h4.58v-.34c0-.87-.41-1.07-1.67-1.07h-5.54v-1.1h5.94c2.25,0,3.02.36,3.02,1.95v4.39h-6.36ZM301.2,429.56v-1.97h-4.36c-1.11,0-1.5.18-1.5.89v.19c0,.71.39.89,1.5.89h4.36Z"/>
    <path d="M306.31,430.66v-6.34h1.75v.72c.19-.27.57-.72,1.95-.72h3.24v1.21h-4.03c-.82,0-1.11.35-1.16.97v4.16h-1.75Z"/>
    <path d="M319.08,430.66c-2.13,0-3.01-.55-3.01-2.25v-2.16c0-1.37.94-1.93,2.8-1.93h4.38c1.57,0,2.16.53,2.16,1.68v.59c0,1.2-.43,1.51-1.91,1.51h-5.69v.22c0,.94.45,1.21,1.73,1.21h5.5v1.12h-5.95ZM322.7,427.32c.75,0,.99-.15.99-.72v-.32c0-.57-.31-.83-1.11-.83h-3.45c-.88,0-1.33.28-1.33.96v.92h4.89Z"/>
  </g>

  <!-- Base do símbolo em navy escuro -->
  <path class="st0" d="M326.78,419c.69,0,1.2-.69,1.08-1.43-1.54-9.91-3.79-13.43-10-18.54-6.8-5.59-21.36-6.46-21.36-6.46,0,0-8.03-.42-15.34-.84-4.14-.24-8.06-.47-10.15-.63-4.35-.32-10.35-1.37-12.15-2.35-.56-.31-1.23-.18-1.66.33l-22.72,27.88c-.65.77-.16,2.05.79,2.05h91.51Z"/>

  <!-- Curva principal em ciano -->
  <path class="st2" d="M246.53,373.43c-.55.64-.11,1.67.69,1.63,7.22-.35,31.43-1.64,52.16,3.54,18.73,4.68,31.62,13.19,34.99,28.86l1.95,10.47c.12.62.63,1.07,1.22,1.07h28.78c.86,0,1.31-1.12.72-1.8-7.56-8.73-40.3-46.53-44.85-51.33-.14-.15-.44-.45-.79-.51-.41-.07-1.15.16-1.16.17-4.99.99-33.82,4.4-49.46-18.47-.37-.54-1.08-.59-1.5-.11l-22.74,26.47Z"/>

  <!-- Acento superior em azul -->
  <path class="st3" d="M315.51,357.01l-29.46-31.6s-5.6,10.45-.27,18.55c2.93,4.46,9.13,5.08,15.6,6.91,5.28,1.5,10.85,4.38,14.13,6.14Z"/>
</svg>

