<?xml version="1.0" encoding="UTF-8"?>
<svg id="Camada_1" xmlns="http://www.w3.org/2000/svg" version="1.1" viewBox="226 320 149.76 106.4">
  <defs>
    <style>
      .st0 { fill: #001b44; }
      .st2 { fill: #21D8DE; }
      .st3 { fill: #0390C6; }
    </style>
  </defs>

  <!-- Base do símbolo em navy escuro -->
  <path class="st0" d="M326.78,419c.69,0,1.2-.69,1.08-1.43-1.54-9.91-3.79-13.43-10-18.54-6.8-5.59-21.36-6.46-21.36-6.46,0,0-8.03-.42-15.34-.84-4.14-.24-8.06-.47-10.15-.63-4.35-.32-10.35-1.37-12.15-2.35-.56-.31-1.23-.18-1.66.33l-22.72,27.88c-.65.77-.16,2.05.79,2.05h91.51Z"/>

  <!-- Curva principal em ciano -->
  <path class="st2" d="M246.53,373.43c-.55.64-.11,1.67.69,1.63,7.22-.35,31.43-1.64,52.16,3.54,18.73,4.68,31.62,13.19,34.99,28.86l1.95,10.47c.12.62.63,1.07,1.22,1.07h28.78c.86,0,1.31-1.12.72-1.8-7.56-8.73-40.3-46.53-44.85-51.33-.14-.15-.44-.45-.79-.51-.41-.07-1.15.16-1.16.17-4.99.99-33.82,4.4-49.46-18.47-.37-.54-1.08-.59-1.5-.11l-22.74,26.47Z"/>

  <!-- Acento superior em azul -->
  <path class="st3" d="M315.51,357.01l-29.46-31.6s-5.6,10.45-.27,18.55c2.93,4.46,9.13,5.08,15.6,6.91,5.28,1.5,10.85,4.38,14.13,6.14Z"/>
</svg>

